<svg width="900" height="600" xml:space="preserve" xmlns="http://www.w3.org/2000/svg"><path fill="#009edb" d="M0 0h899.99999v599.99999H0Z"/><path d="M435.58285 51.75768c-.47044-.07902-.95716.32228-1.47429 1.31835-2.45202 4.90367-3.4498 8.8107-4.14173 11.79908-.65444 2.90202-5.05314 2.91214-6.89185 3.52508-1.83871.61306-2.16892 6.41664-3.98343 4.0614-5.7496-7.43237-9.50342-7.7387-14.40745-7.12576-2.91289 1.45573 4.52219 5.28693 2.45244 9.80737-14.71088 0-17.16273 4.9035-19.61474 19.61473-4.59676-4.444-8.88774 6.28274-22.06715 9.80737.23104 3.14153 1.53264 11.26465 0 14.71222-.17178.86129 2.80674 2.67026 1.85231 6.27993-.9508 3.60968-8.05375 4.65212-9.2356 9.03478-1.18428 4.38145 3.01729 3.29112 2.15237 6.46895-.86612 3.17902-4.72768 3.34629-2.66034 14.14991-.45847 1.99234-4.36855 5.74834-4.36855 5.74834s-2.82769 3.16976 1.38925 7.59355c-6.94355 5.39274-6.48287 17.34669-6.29174 21.82853-7.04879-1.83871-12.2598 2.45007-12.2598 2.45007l2.45006 9.80974c-19.61489 7.35482-26.58722 1.91327-29.49769 5.36085-2.87298 4.32942-10.22795 6.18818-24.64246 6.92729-2.55484.28548-4.09084 4.87415-12.05897 4.87415-7.35604-2.45201-12.26031-12.2599-22.06716-19.61473l-22.06716-7.3573c-7.35605-4.90402-9.80789-9.80584-19.61474-14.70986l-17.16229-7.3573c-12.26007-7.35483-20.76281-32.71683-26.96966-26.96966 0 17.16289 4.90301 41.68162 14.70987 53.94169 7.35603 4.90403 9.80862 7.35535 17.16465 9.80736 4.90283 7.35605 4.9014 7.35577 12.25743 12.2598-12.25885 4.90281-12.25826 2.451-17.16229 14.70986 7.58588 2.68186 2.75833 6.30154 6.743 9.46243 3.98347 3.15967 6.28309 1.95318 9.42463 4.25276 2.22096-.76692.99466-3.90781.99466-3.90781s2.83511-5.13314 4.90487-2.45007c4.21452 10.26531 9.80736 7.35492 9.80736 7.35492.61331 2.45202-1.15075 8.04328.26698 8.96626 4.40565 2.83428.34472 9.65352 1.11045 10.57287 4.59798 1.83992 5.13389-7.58598 6.55163-7.20372 1.41775.38589 1.87873-.0756 4.33075-.0756 0 9.80685-.00032 9.80668 4.90249 19.61473 0 0-5.51532.076-7.39274.76551 2.95041 7.74071-12.29825 15.85945-12.06841 19.0784-.53589 1.60887 2.45291 25.5155 4.75129 29.19292 1.45644 2.29959-14.71223 0-14.71223 0 0 19.6149 4.90469 24.51765 24.5196 26.96966 0 0-3.52543-6.74162-2.45244-7.35493 5.28629-4.82782 4.90486 9.80737 4.90486 9.80737 20.99272 8.88748-2.4519 6.35909 7.35494 19.61472l9.80736-2.45007c2.45202 26.97095 7.35525 12.25895 2.45244 41.68189h12.25743v14.70987c24.51893-7.35604 17.16366 4.90333 31.87453 9.80737l17.1623 4.90249 19.61472 9.80974v-4.90487s30.18961 1.76165 33.17872 2.75722c6.59031.30726 2.83448-7.27697 12.64255-7.27697.64959 0 11.18616 7.10602 14.05068-2.18308-.72339 9.55402 18.43688 5.09332 22.57277 5.0159 4.52176 0 30.49609 17.31619 45.20696 12.41337 7.20363-2.60686 7.20341-12.10426 12.10622-10.72644 1.60888 0 9.80738 22.06716 9.80738 22.06716 2.75805 6.81894 2.7401 8.70598-.56232 16.43461-1.84597 5.35281 4.20542 8.03856-6.32481 15.16113-8.07943 4.82298-4.00765 6.72152-5.99878 11.72111-2.60443 3.46451-10.6564 3.44065-9.41044 8.55516 1.53145 4.90281 17.24068 2.83513 19.84391 14.32948 3.18024 1.64758 2.87568-3.8709 8.70873-4.03541 2.91533-.0798 3.21435 5.1007 6.49257 4.25513 5.1387-1.34637 4.26185-2.90279 9.31829-.21972 3.75363-14.2512 7.58665 11.03212 31.72332 2.52567 4.69234-.80322 10.16604 4.95185 11.54627 4.71113 1.38025-.24073 5.18171-9.31315 7.1305-9.58291 1.94998-.26976 2.66639 2.82631 4.92848 2.5493 2.26572-.27702 8.91183-9.13371 11.2344-9.39863 2.32379-.2625 2.06717 6.98978 3.03129 6.89422.9629-.098 1.50973-.15121 1.50973-.15121l12.25981-2.45244s-2.14525 6.13052-2.29888 7.81802c.67138.24677 5.67082-5.55658 9.38209-7.89125 3.71492-2.33105 6.75258-8.39832 8.86468-2.38864 4.77096-6.30847 7.73795-5.55914 14.02705-7.63373 5.73024-9.67015 11.70736-8.90582 14.15937-9.51912 4.90283 0 6.66706.15284 9.80737 2.45242.99556-2.52821-4.90487-4.90485-4.90487-4.90485.00001 0 5.05604-14.09787 16.55038-16.31884.6121-3.0641-9.50107-9.50248-6.74301-15.55569 10.57257-.30726 24.13613-8.04487 24.5196-9.80736-.68952-4.44315-5.13592-5.59286-4.90487-9.80738 2.75806.30605 12.2598 0 12.2598 0-7.35484-12.26007-2.45201-14.7108 0-26.96966l7.35493 2.45244c4.90403-7.35605 4.90538-7.35772 14.71222-9.80973 2.52823-14.17378-4.13912-15.40074-4.90485-29.4221 13.02458 2.3758 5.21073-19.99699 24.51959-19.61473-2.45201-29.42295 4.90292-22.06699 7.35494-41.68189-9.04234 0-15.47675-9.8839-14.86344-10.65083 9.80684-12.25886-4.59994-15.2455 10.11214-25.05356-7.35604-17.16288-9.95969-15.78428-2.60364-32.94716-29.42175 7.35604-12.25904-7.35619-49.03682-14.71223 4.90281-7.35605 14.71054-19.61362 4.90249-26.96966 2.45202-4.90282 6.36026-7.43259 6.36026-12.33541.00001-3.67863-8.02683-18.21675-6.62723-26.85625-5.26815-8.40967-5.86256-12.29844-7.08796-17.20247-2.45201-14.71087 0-24.51886 0-26.96966-2.45201-4.90402-7.35577-9.80778-12.25979-12.25979-4.90283-2.45202-6.51231.22959-11.41633 2.6816-2.37581-.22984.55973-3.76889-3.46365-6.47131-4.86895.82138-7.19703-1.43032-9.59945-5.82629-5.16412-2.32741-11.93641-3.35129-25.23075-7.89361-4.94516-.86432-6.68144-1.4141-10.97215-2.02716-1.8-.11468-3.65966 4.7319-5.67983 6.61779-2.02256 1.88709-4.20551.81274-4.20551.81274 0-6.3589-8.96545-16.16605-7.89126-24.6708-4.02337-1.26424-2.72013 1.8775-7.32658 2.65325-2.83426.25113-7.23276-9.85461-10.83275-9.85461-2.14475-.38323-30.34039 14.86324-38.53957-7.74005-1.38024-1.76213-7.75392 3.69593-11.64787-2.29886-2.75805-11.1099-7.66165-7.20317-12.87172-12.41337-7.04879.76621-11.95391 4.59962-19.30995 2.68397-9.80684-2.6816-33.17488-4.9826-43.52003-5.36558-1.37903-5.86142-2.62878-10.42797-4.04014-10.665zm-271.48752 112.3417c-2.06854.0774-4.59739-.30518-3.75425 2.98875 1.22661-2.52822 3.67804-2.83512 3.75425-2.98875zm-1.41759 7.64318c-1.01653.0252-2.96902.38272-2.33666 2.85408 1.22661-2.52942 2.83458-2.68155 2.91079-2.83518 0 0-.23529-.0273-.57413-.0189zm15.54624 36.26197c.0774.15363 1.14785.53493 2.37447 3.06435.84314-3.29514-2.37447-3.06435-2.37447-3.06435zM739.05831 352.509c-.71613 1.61129-.58911 3.22171.15121 4.3709 1.32943-1.99353.20685-2.91445-.15121-4.3709z" fill="#fff" stroke="#fff" stroke-width="2" stroke-linejoin="round"/></svg>