<?xml version="1.0" encoding="UTF-8"?>
<svg version="1.1" width="600" height="300" xml:space="preserve" xmlns="http://www.w3.org/2000/svg" xmlns:xlink="http://www.w3.org/1999/xlink">
<rect width="600" height="100" fill="#0035ad"/>
<rect y="100" width="600" height="100" fill="#ed4135"/>
<rect y="200" width="600" height="100" fill="#009543"/>
<g transform="matrix(.67806 0 0 .67806 -3.4174 -2.5631)">
<circle cx="300" cy="225" r="147.48" fill="#fae600" stroke="#000" stroke-width="0"/>
<path d="m275 247h50m-50-37h50m-25-132v252" stroke="#000" stroke-width="6"/>
<path d="m298.69 323.43c-10.503 0.044-21.012 2.2735-26.359 6.5527-7.5666 6.0577-26.956 25.741-31.016 30.133a147.48 147.48 0 0 0 58.562 12.357c0.0993-4e-5 0.19582-2e-3 0.29492-2e-3a147.48 147.48 0 0 0 55.789-11.336c-3.2771-3.5788-21.019-22.846-30.945-31.152-5.3265-4.4554-15.823-6.5968-26.326-6.5527z" stroke-width="1.0075"/>
<ellipse cx="300" cy="293" rx="16.5" ry="24"/>
<ellipse cx="300" cy="228.5" rx="20" ry="12.66"/>
<circle cx="300" cy="170" r="20"/>
<path d="m324 95.5c-6e-3 -0.0134 1.733 2.8708-1.913 9.436-17.426 31.383-34.913 32.061-38.232 34.764-3.658 2.978-5.202 2.774-5.202 2.774 0.261-2.688 0.504-13.679 0.695-14.738 2.645-14.663 24.796-14.461 42.132-29.476 2.708-2.3455 2.514-2.7739 2.514-2.7739z"/>
<g id="a">
<path d="m265.5 163s3.9144 11.23 4.5 22.5c0.93516 17.997 18.18 18.5 30 18.5v-10c-8.8585 0-16.553-1.3166-23-14.5-3.1804-6.5034-11.5-16.5-11.5-16.5z"/>
<path d="m265 308s6.2964-7.7654 13.662-25.975c3.8429-9.5005 12.95-15.025 21.338-15.025v-14c-19.028 0-28.15 7.0552-29.113 17.363-1.9774 21.178-5.8872 37.637-5.8872 37.637z"/>
</g>
<use transform="matrix(-1,0,0,1,600,0)" xlink:href="#a"/>
</g>
</svg>